# File created by Blade
# Date/Time:  Thu Jan 15 19:03:44 2015
#---------------------------------------------------------
:version 1.10
:name HOM
:units
  mass 1.0
  length 1.000000
  angle deg
:documentation
     Acclaim Skeleton File
:root
   axis xyz
   order TX TY TZ RX RY RZ
   position 0.000000 0.000000 0.000000
   orientation 0 0 0
:bonedata
   begin
      id 1
      name Spine_dum
      direction 0.000000 1.000000 0.000000
      length 4.354460
      axis 0.0 0.0 0.0 xyz
   end
   begin
      id 2
      name LeftUpLeg_dum
      direction 1.000000 0.000000 0.000000
      length 4.291077
      axis 0.0 0.0 0.0 xyz
   end
   begin
      id 3
      name RightUpLeg_dum
      direction -1.000000 0.000000 0.000000
      length 4.291077
      axis 0.0 0.0 0.0 xyz
   end
   begin
      id 4
      name Spine
      direction 0.000000 1.000000 0.000000
      length 0.000000
      axis 0.0 0.0 0.0 xyz
      dof rx ry rz
   end
   begin
      id 5
      name Spine_dum1
      direction 0.000000 1.000000 0.000000
      length 16.581769
      axis 0.0 0.0 0.0 xyz
   end
   begin
      id 6
      name Spine_dum2
      direction 0.000000 1.000000 0.000000
      length 12.903700
      axis 0.0 0.0 0.0 xyz
   end
   begin
      id 7
      name Spine_dum3
      direction 0.000000 1.000000 0.000000
      length 12.903700
      axis 0.0 0.0 0.0 xyz
   end
   begin
      id 8
      name Head
      direction 0.000000 1.000000 0.000000
      length 4.527550
      axis 0.0 0.0 0.0 xyz
      dof rx ry rz
   end
   begin
      id 9
      name LeftShoulder
      direction 1.000000 0.000000 0.000000
      length 6.942033
      axis 0.0 0.0 -90.0 xyz
      dof rx ry rz
   end
   begin
      id 10
      name LeftArm
      direction 1.000000 0.000000 0.000000
      length 11.010391
      axis 0.0 0.0 -90.0 xyz
      dof rx ry rz
   end
   begin
      id 11
      name LeftForeArm
      direction 1.000000 0.000000 0.000000
      length 8.054994
      axis 0.0 0.0 -90.0 xyz
      dof rz ry rx
   end
   begin
      id 12
      name LeftHand
      direction 0.000000 0.000000 0.000000
      length 0.000000
      axis 0.0 0.0 -90.0 xyz
      dof rx ry rz
   end
   begin
      id 13
      name LeftHand_dum1
      direction 0.000000 0.000000 0.000000
      length 0.000000
      axis 0.0 0.0 -90.0 xyz
   end
   begin
      id 14
      name LeftHand_dum2
      direction 1.000000 0.000000 0.000000
      length 3.937000
      axis 0.0 0.0 -90.0 xyz
   end
   begin
      id 15
      name LeftHandThumb1
      direction 0.000000 0.000000 1.000000
      length 3.937000
      axis 0.0 0.0 -90.0 xyz
      dof rx ry rz
   end
   begin
      id 16
      name RightShoulder
      direction -1.000000 0.000000 0.000000
      length 6.942033
      axis 0.0 0.0 90.0 xyz
      dof rx ry rz
   end
   begin
      id 17
      name RightArm
      direction -1.000000 0.000000 0.000000
      length 11.010391
      axis 0.0 0.0 90.0 xyz
      dof rx ry rz
   end
   begin
      id 18
      name RightForeArm
      direction -1.000000 0.000000 0.000000
      length 8.054994
      axis 0.0 0.0 90.0 xyz
      dof rz ry rx
   end
   begin
      id 19
      name RightHand
      direction 0.000000 0.000000 0.000000
      length 0.000000
      axis 0.0 0.0 90.0 xyz
      dof rx ry rz
   end
   begin
      id 20
      name RightHand_dum1
      direction 0.000000 0.000000 0.000000
      length 0.000000
      axis 0.0 0.0 90.0 xyz
   end
   begin
      id 21
      name RightHand_dum2
      direction -1.000000 0.000000 0.000000
      length 3.937000
      axis 0.0 0.0 90.0 xyz
   end
   begin
      id 22
      name RightHandThumb1
      direction 0.000000 0.000000 1.000000
      length 3.937000
      axis 0.0 0.0 90.0 xyz
      dof rx ry rz
   end
   begin
      id 23
      name LeftUpLeg
      direction 0.000000 -1.000000 0.000000
      length 17.039958
      axis 0.0 0.0 0.0 xyz
      dof rx ry rz
   end
   begin
      id 24
      name LeftLeg
      direction 0.000000 -1.000000 0.000000
      length 16.939743
      axis 0.0 0.0 0.0 xyz
      dof rx ry rz
   end
   begin
      id 25
      name LeftFoot
      direction 0.000000 -0.258819 0.965926
      length 5.235044
      axis 15.0 0.0 0.0 xyz
      dof rx ry rz
   end
   begin
      id 26
      name LeftToeBase
      direction 0.000000 0.000000 1.000000
      length 2.952750
      axis 0.0 0.0 0.0 xyz
      dof rx ry rz
   end
   begin
      id 27
      name RightUpLeg
      direction 0.000000 -1.000000 0.000000
      length 17.039958
      axis 0.0 0.0 0.0 xyz
      dof rx ry rz
   end
   begin
      id 28
      name RightLeg
      direction 0.000000 -1.000000 0.000000
      length 16.939743
      axis 0.0 0.0 0.0 xyz
      dof rx ry rz
   end
   begin
      id 29
      name RightFoot
      direction 0.000000 -0.258819 0.965926
      length 5.235044
      axis 15.0 0.0 0.0 xyz
      dof rx ry rz
   end
   begin
      id 30
      name RightToeBase
      direction 0.000000 0.000000 1.000000
      length 2.952750
      axis 0.0 0.0 0.0 xyz
      dof rx ry rz
   end
:hierarchy
   begin
      root Spine_dum LeftUpLeg_dum RightUpLeg_dum
      Spine_dum Spine
      LeftUpLeg_dum LeftUpLeg
      RightUpLeg_dum RightUpLeg
      Spine Spine_dum1 Spine_dum2 Spine_dum3
      Spine_dum1 Head
      Spine_dum2 LeftShoulder
      Spine_dum3 RightShoulder
      LeftShoulder LeftArm
      LeftArm LeftForeArm
      LeftForeArm LeftHand
      LeftHand LeftHand_dum1 LeftHand_dum2
      LeftHand_dum1 LeftHandThumb1
      RightShoulder RightArm
      RightArm RightForeArm
      RightForeArm RightHand
      RightHand RightHand_dum1 RightHand_dum2
      RightHand_dum1 RightHandThumb1
      LeftUpLeg LeftLeg
      LeftLeg LeftFoot
      LeftFoot LeftToeBase
      RightUpLeg RightLeg
      RightLeg RightFoot
      RightFoot RightToeBase
   end

# File created by Blade
# Date/Time:  Thu Jan 15 19:03:33 2015
# Frame Rate: 120.000 fps
#------------------------------------------------------
:FULLY-SPECIFIED
:DEGREES
3008
root 3.246264 35.247240 -10.588199 -180.014746 1.819936 -182.061300
Spine -8.272897 9.381464 -1.832103
Head 1.704180 -3.230687 8.483423
LeftShoulder -8.680613 8.872446 10.505612
LeftArm 15.120074 -51.774856 -14.015139
LeftForeArm -0.000000 17.203574 -1.781824
LeftHand -2.108504 0.000000 -5.595308
LeftHandThumb1 -26.253704 33.147579 0.000000
RightShoulder -20.474242 5.085463 -20.281643
RightArm -2.014073 45.769973 11.406278
RightForeArm -0.000000 -44.165593 11.739196
RightHand -4.650874 -0.000000 8.528122
RightHandThumb1 -24.326973 -32.862282 -0.000000
LeftUpLeg 9.097077 9.151879 0.040022
LeftLeg -1.037380 -0.000000 0.000000
LeftFoot -19.953036 15.799350 -14.023606
LeftToeBase 19.408632 -0.000000 -0.000000
RightUpLeg 7.476217 -9.970325 -10.799193
RightLeg 2.086774 -0.000000 -0.000000
RightFoot -20.162948 -10.841839 13.790374
RightToeBase 20.936675 -0.000000 -0.000000
3009
root 3.236982 35.246682 -10.578037 -179.861039 1.871020 -182.081368
Spine -8.413526 9.453161 -1.860259
Head 1.601268 -3.215086 8.424298
LeftShoulder -8.687008 8.776062 10.497853
LeftArm 15.043668 -51.694943 -14.061852
LeftForeArm -0.000000 17.126198 -1.781308
LeftHand -2.260337 -0.000000 -5.771855
LeftHandThumb1 -26.253704 33.147579 0.000000
RightShoulder -20.507891 5.235690 -20.263026
RightArm -1.893459 45.972452 11.538269
RightForeArm -0.000000 -44.179726 11.681058
RightHand -4.636593 -0.000000 8.736689
RightHandThumb1 -24.326973 -32.862282 -0.000000
LeftUpLeg 8.959625 9.093766 -0.031765
LeftLeg -1.097653 -0.000000 0.000000
LeftFoot -19.933520 15.890572 -14.019972
LeftToeBase 19.395036 -0.000000 -0.000000
RightUpLeg 7.483919 -9.745619 -10.778092
RightLeg 1.695016 -0.000000 -0.000000
RightFoot -20.032201 -11.045339 13.827795
RightToeBase 20.973201 -0.000000 -0.000000
3010
root 3.229105 35.246043 -10.567525 -179.721683 1.914183 -182.110867
Spine -8.535644 9.507989 -1.907700
Head 1.497922 -3.189500 8.382360
LeftShoulder -8.691860 8.697765 10.485759
LeftArm 14.994562 -51.638135 -14.112406
LeftForeArm -0.000000 17.307072 -1.805117
LeftHand -2.422722 -0.000000 -5.733794
LeftHandThumb1 -26.253704 33.147579 0.000000
RightShoulder -20.524174 5.385205 -20.223800
RightArm -1.787846 46.212577 11.645022
RightForeArm 0.000000 -44.270448 11.634262
RightHand -4.650335 0.000000 8.903465
RightHandThumb1 -24.326973 -32.862282 -0.000000
LeftUpLeg 8.844348 9.055195 -0.103965
LeftLeg -1.173757 -0.000000 0.000000
LeftFoot -19.891990 15.946789 -14.035445
LeftToeBase 19.394170 -0.000000 -0.000000
RightUpLeg 7.498094 -9.532312 -10.762093
RightLeg 1.321961 -0.000000 -0.000000
RightFoot -19.915798 -11.272948 13.828217
RightToeBase 20.996504 -0.000000 -0.000000
3011
root 3.223194 35.244984 -10.556465 -179.592940 1.963382 -182.146125
Spine -8.635661 9.570421 -1.969703
Head 1.371379 -3.143388 8.347140
LeftShoulder -8.701930 8.673600 10.480213
LeftArm 14.914000 -51.541998 -14.102723
LeftForeArm -0.000000 17.204670 -1.835322
LeftHand -2.539770 -0.000000 -5.862926
LeftHandThumb1 -26.253704 33.147579 0.000000
RightShoulder -20.540346 5.518806 -20.173742
RightArm -1.693956 46.388548 11.741879
RightForeArm -0.000000 -44.184772 11.572977
RightHand -4.591906 0.000000 9.076968
RightHandThumb1 -24.326973 -32.862282 -0.000000
LeftUpLeg 8.742964 9.075631 -0.171145
LeftLeg -1.257995 -0.000000 0.000000
LeftFoot -19.842203 15.961614 -14.055489
LeftToeBase 19.377859 -0.000000 -0.000000
RightUpLeg 7.531711 -9.237942 -10.734504
RightLeg 0.918248 -0.000000 -0.000000
RightFoot -19.813664 -11.617168 13.810301
RightToeBase 21.026838 -0.000000 -0.000000
3012
root 3.217351 35.244614 -10.545187 -179.482458 2.000412 -182.180836
Spine -8.711188 9.600494 -2.018068
Head 1.251263 -3.091520 8.293112
LeftShoulder -8.754194 8.651601 10.470645
LeftArm 14.910289 -51.483049 -14.163219
LeftForeArm -0.000000 17.232468 -1.882086
LeftHand -2.630079 -0.000000 -5.830075
LeftHandThumb1 -26.253704 33.147579 0.000000
RightShoulder -20.532502 5.602215 -20.125089
RightArm -1.604690 46.660171 11.860212
RightForeArm -0.000000 -44.208307 11.592140
RightHand -4.629022 -0.000000 9.261111
RightHandThumb1 -24.326973 -32.862282 -0.000000
LeftUpLeg 8.660237 9.123627 -0.232500
LeftLeg -1.344971 -0.000000 0.000000
LeftFoot -19.785704 15.958160 -14.059498
LeftToeBase 19.408965 -0.000000 -0.000000
RightUpLeg 7.558550 -8.969865 -10.710605
RightLeg 0.568181 -0.000000 -0.000000
RightFoot -19.713832 -11.956084 13.789298
RightToeBase 21.067999 -0.000000 -0.000000
3013
root 3.209940 35.244118 -10.533060 -179.378396 2.020967 -182.221758
Spine -8.771299 9.612196 -2.060802
Head 1.121145 -2.982556 8.252204
LeftShoulder -8.778801 8.630971 10.434747
LeftArm 14.913551 -51.541041 -14.216827
LeftForeArm -0.000000 17.484470 -1.980189
LeftHand -2.732059 -0.000000 -5.654923
LeftHandThumb1 -26.253704 33.147579 0.000000
RightShoulder -20.506415 5.678794 -20.098674
RightArm -1.540027 46.877506 11.963038
RightForeArm -0.000000 -44.206344 11.586074
RightHand -4.538789 -0.000000 9.291444
RightHandThumb1 -24.326973 -32.862282 -0.000000
LeftUpLeg 8.583520 9.182000 -0.302886
LeftLeg -1.443904 -0.000000 0.000000
LeftFoot -19.714644 15.950277 -14.041796
LeftToeBase 19.422335 -0.000000 -0.000000
RightUpLeg 7.597704 -8.749801 -10.703460
RightLeg 0.213639 -0.000000 -0.000000
RightFoot -19.612672 -12.282378 13.729210
RightToeBase 21.113191 -0.000000 -0.000000
3014
root 3.203318 35.243189 -10.520968 -179.288095 2.023198 -182.256054
Spine -8.804001 9.609555 -2.095895
Head 0.980538 -2.899966 8.202353
LeftShoulder -8.805237 8.614899 10.404766
LeftArm 14.885440 -51.624566 -14.248269
LeftForeArm -0.000000 17.492788 -2.016008
LeftHand -2.963203 0.000000 -5.636039
LeftHandThumb1 -26.253704 33.147579 0.000000
RightShoulder -20.497992 5.713365 -20.075387
RightArm -1.439072 47.035716 12.105370
RightForeArm -0.000000 -44.151407 11.576901
RightHand -4.587410 -0.000000 9.420189
RightHandThumb1 -24.326973 -32.862282 -0.000000
LeftUpLeg 8.516364 9.259745 -0.359613
LeftLeg -1.535286 -0.000000 0.000000
LeftFoot -19.645679 15.922155 -14.008793
LeftToeBase 19.427459 -0.000000 -0.000000
RightUpLeg 7.663527 -8.536619 -10.694001
RightLeg -0.153124 -0.000000 0.000000
RightFoot -19.500249 -12.596448 13.698757
RightToeBase 21.140812 -0.000000 -0.000000
3015
root 3.196355 35.242363 -10.509263 -179.239075 2.014608 -182.283440
Spine -8.786361 9.576924 -2.104724
Head 0.843791 -2.813399 8.120453
LeftShoulder -8.811442 8.607114 10.337913
LeftArm 14.781017 -51.800361 -14.221548
LeftForeArm -0.000000 17.619174 -1.997023
LeftHand -3.223343 0.000000 -5.490553
LeftHandThumb1 -26.253704 33.147579 0.000000
RightShoulder -20.461246 5.736850 -20.052932
RightArm -1.340197 47.198364 12.230959
RightForeArm -0.000000 -44.198782 11.574225
RightHand -4.497856 -0.000000 9.450569
RightHandThumb1 -24.326973 -32.862282 -0.000000
LeftUpLeg 8.496241 9.342253 -0.399685
LeftLeg -1.641582 -0.000000 0.000000
LeftFoot -19.560643 15.871022 -13.979965
LeftToeBase 19.434183 -0.000000 -0.000000
RightUpLeg 7.752571 -8.492370 -10.705293
RightLeg -0.473444 -0.000000 0.000000
RightFoot -19.371668 -12.750765 13.658590
RightToeBase 21.130940 -0.000000 -0.000000
3016
root 3.189953 35.241460 -10.496711 -179.187238 1.989949 -182.301725
Spine -8.771276 9.555543 -2.113404
Head 0.718017 -2.742756 8.058349
LeftShoulder -8.839685 8.646119 10.298299
LeftArm 14.816605 -51.924577 -14.292195
LeftForeArm -0.000000 17.566396 -2.053933
LeftHand -3.367527 -0.000000 -5.404513
LeftHandThumb1 -26.253704 33.147579 0.000000
RightShoulder -20.439244 5.742760 -20.042426
RightArm -1.257225 47.258185 12.353782
RightForeArm -0.000000 -44.192231 11.609201
RightHand -4.637731 -0.000000 9.581849
RightHandThumb1 -24.326973 -32.862282 -0.000000
LeftUpLeg 8.467420 9.421738 -0.429207
LeftLeg -1.740839 -0.000000 0.000000
LeftFoot -19.482276 15.820203 -13.911688
LeftToeBase 19.446510 -0.000000 -0.000000
RightUpLeg 7.835475 -8.452768 -10.708477
RightLeg -0.775064 -0.000000 0.000000
RightFoot -19.233489 -12.895222 13.621728
RightToeBase 21.171490 -0.000000 -0.000000
